# xmcd
# 
# Track frame offsets:
#     150
#     10587
#     23592
#     38645
#     57262
#     74172
#     84620
#     104460
#     115712
#     134037
#     154785
# 
# Disc length: 2313
# 
# Revision: 6
# Processed by: cddbd v1.5.2PL0 Copyright (c) Steve Scherf et al.
# Submitted via: fre:ac v1.0.17
# 
DISCID=8d09070b
DTITLE=Various Artist - New Country - Volume 3 - Number 4
DYEAR=1996
DGENRE=Country
TTITLE0=The Cornell Hurd Band - I Don't Care What It Is That You Did When You Lived In Ft. Worth
TTITLE1=Tom Russell - The Rose Of The San Joaquin
TTITLE2=David Young - Two Hearts
TTITLE3=Blue Highway - I Can Stand The Truth
TTITLE4=Fred Eaglesmith - Wilder Than Her
TTITLE5=David Parmley, Scott Vestal and Continental Divide - New Highway
TTITLE6=John McEuen - Homecoming
TTITLE7=Tom T. Hall - Shoes And Dress That Alice Wore
TTITLE8=Rory Block - You Don't Mind
TTITLE9=Alejandro Escovedo -  2am
TTITLE10=Robert Earl Keen - Rolling By
EXTD=
EXTT0=
EXTT1=
EXTT2=
EXTT3=
EXTT4=
EXTT5=
EXTT6=
EXTT7=
EXTT8=
EXTT9=
EXTT10=
PLAYORDER=
